<?xml version="1.0" encoding="utf-8"?>
<!-- Generator: Adobe Illustrator 25.2.1, SVG Export Plug-In . SVG Version: 6.00 Build 0)  -->
<svg version="1.1" id="Layer_1" xmlns="http://www.w3.org/2000/svg" xmlns:xlink="http://www.w3.org/1999/xlink" x="0px" y="0px"
	 viewBox="0 0 470.5 80.9" style="enable-background:new 0 0 470.5 80.9;" xml:space="preserve">
<style type="text/css">
	.st0{fill:none;}
	.st1{fill:#F26322;}
	.st2{fill:#78797C;}
</style>
<rect x="-35.1" y="-28.5" class="st0" width="534.2" height="138.3"/>
<path class="st1" d="M284.9,20.1h-6.2v-5.5h13.4v17.2c0,1-0.1,2.1-0.2,3.1h0.1c2.5-4.2,7.1-6.7,12-6.5c10.1,0,16.4,7.9,16.4,19.5
	c0,11.8-7.1,19.5-17,19.5c-4.9,0.1-9.4-2.5-11.8-6.8h-0.1c0.1,1,0.2,2,0.2,2.9v3h-6.7V20.1z M302.4,61.2c5.8,0,10.7-4.8,10.7-13.2
	c0-8.1-4.3-13.3-10.5-13.3c-5.5,0-10.7,3.9-10.7,13.4C291.8,54.7,295.3,61.2,302.4,61.2L302.4,61.2z"/>
<path class="st2" d="M320.6,61h5.9V20.1h-6.2v-5.5h13.3v19.2c0,1-0.1,2.1-0.2,3.1h0.1c2.6-5.3,8-8.6,13.9-8.5
	c8.8,0,12.8,4.8,12.8,14.3V61h5.8v5.5H353V44.3c0-5.2-1.1-9.3-7-9.3c-7.3,0-12.4,6.2-12.4,14.1V61h5.9v5.5h-18.9V61z"/>
<path class="st2" d="M384.6,28.4c10.6,0,16.1,7.8,16.1,17.4c0,1-0.2,2.7-0.2,2.7h-27.2c0.4,8.2,6.2,12.6,12.9,12.6
	c4.1-0.1,8-1.6,11.1-4.2l2.9,5.2c-4.1,3.3-9.2,5.2-14.5,5.1c-11.7,0-19.7-8.4-19.7-19.5C366,36.1,374,28.4,384.6,28.4z M393.3,44
	c-0.2-6.5-4.2-9.9-8.9-9.9c-5.4,0-9.9,3.7-10.9,9.9H393.3z"/>
<path class="st2" d="M403.6,61h5.6V36.5c0.1-0.8-0.5-1.5-1.2-1.6c-0.1,0-0.3,0-0.4,0h-4.7v-5.5h8.4c3.2,0,4.8,1.3,4.8,4.3V36
	c0,0.9,0,1.7-0.1,2.6h0.1c1.7-5.4,6-9.7,11.8-9.7c0.6,0,1.2,0.1,1.8,0.2v7.1c-0.7-0.1-1.4-0.2-2.1-0.2c-7.9,0-11.3,8-11.3,15.3V61
	h5.5v5.5h-18.2V61z"/>
<path class="st2" d="M448.9,28.4c10.6,0,16.1,7.8,16.1,17.4c0,1-0.2,2.7-0.2,2.7h-27.2c0.4,8.2,6.2,12.6,12.9,12.6
	c4.1-0.1,8-1.6,11.1-4.2l2.9,5.2c-4.1,3.3-9.2,5.2-14.5,5.1c-11.7,0-19.7-8.4-19.7-19.5C430.3,36.1,438.3,28.4,448.9,28.4z
	 M457.7,44c-0.2-6.5-4.2-9.9-8.9-9.9c-5.4,0-9.9,3.7-10.9,9.9H457.7z"/>
<line class="st0" x1="261.1" y1="0" x2="261.1" y2="80.9"/>
<rect x="260.1" class="st2" width="2" height="80.9"/>
<path class="st1" d="M107.1,52.1l-0.5,2.9h-6.3v4h5.3v2.9h-5.2v4.8h6.9v3H96.6V52.1H107.1z"/>
<path class="st1" d="M122.2,52.1l-0.6,2.9h-4.4v14.6h-3.8V55h-4.5v-2.9H122.2z"/>
<path class="st1" d="M133.6,52.1v6.8h5.3v-6.8h3.8v17.5h-3.8v-7.8h-5.3v7.8H130V52.1H133.6z"/>
<path class="st1" d="M153.6,69.8c-6.8,0-7.9-5.5-7.9-9.1c0-5.5,3-8.9,7.9-8.9s7.9,3.4,7.9,8.9C161.5,64.3,160.4,69.8,153.6,69.8z
	 M153.6,54.5c-3.3,0-3.6,3.2-3.6,6.2c0,4.4,1.1,6.3,3.6,6.3s3.6-1.9,3.6-6.3C157.3,57.7,156.9,54.5,153.6,54.5z"/>
<path class="st1" d="M174.4,55.8c-1.3-0.8-2.8-1.3-4.3-1.3c-1.5,0-2.6,0.8-2.6,2c0,0.9,0.5,1.4,2,1.8l2.2,0.6c3,0.8,4.6,2.6,4.6,5.2
	c0,3.5-3,5.9-7.6,5.9c-2.2,0-4.3-0.6-6.3-1.6l1.4-2.8c1.5,0.9,3.3,1.4,5.1,1.4c2.1,0,3.2-0.8,3.2-2.4c0-1.1-0.8-1.8-2.4-2.3l-2-0.5
	c-2.9-0.8-4.4-2.2-4.4-4.9c0-3.2,2.7-5.4,6.6-5.4c2.2,0,4.3,0.6,6.1,1.8L174.4,55.8z"/>
<path class="st1" d="M184.8,52.1c5.9-0.1,7.2,2.7,7.2,5.4s-1.5,5.7-6.8,5.7h-2v6.5h-3.7V52.1H184.8z M183.1,60.2h1.9
	c2.6,0,2.9-1.3,2.9-2.7c0.1-1.3-0.8-2.5-2.1-2.6c-0.1,0-0.3,0-0.4,0h-2.4L183.1,60.2z"/>
<path class="st1" d="M87.2,52.1c5.9-0.1,7.2,2.7,7.2,5.4s-1.5,5.7-6.8,5.7h-2v6.5h-3.7V52.1H87.2z M85.5,60.2h1.9
	c2.6,0,2.9-1.3,2.9-2.7c0.2-1.3-0.8-2.4-2-2.6c-0.1,0-0.3,0-0.4,0h-2.4V60.2z"/>
<path class="st1" d="M198.1,52.1v17.5h-3.9V52.1H198.1z"/>
<path class="st1" d="M213.6,52.1L213,55h-4.4v14.6h-3.8V55h-4.5v-2.9H213.6z"/>
<path class="st1" d="M221.9,52l5.8,17.5h-4l-1.3-4.1H217l-1.3,4.1h-3.8l6-17.5L221.9,52z M221.6,62.4c0,0-0.6-1.8-1-3.5
	c-0.2-0.8-0.7-3.1-0.7-3.1l-0.9,3.4c-0.3,1.3-0.6,2.1-1,3.2H221.6z"/>
<path class="st1" d="M233.4,52.1v14.5h6.6l-0.7,2.9h-9.7V52.1H233.4z"/>
<path class="st1" d="M100.9,28.2c2.4-1.2,3.5-3.8,3.5-6.7c0-3.4-1.8-8.7-11.1-8.7h-11c-0.5,0-0.9,0.4-0.9,0.9l0,0v31.5
	c0,0.5,0.4,0.9,0.9,0.9c0,0,0,0,0,0h11.4c10.6,0,12-6.5,12-9.7C105.9,32.9,104,29.8,100.9,28.2z M87.5,31h6c5.9,0,5.9,3.3,5.9,4.9
	c0,1.8-0.2,4.9-5.9,4.9h-6V31z M93,25.8h-5.5v-7.8H93c5.2,0,5.4,2.6,5.4,3.9S98.3,25.8,93,25.8L93,25.8z"/>
<path class="st1" d="M125.9,23.1c-1.9-1.9-4.7-2.9-8.4-2.9c-2.9,0-5.7,0.6-8.4,1.7c-0.3,0.1-0.6,0.5-0.6,0.8v3.6
	c0,0.5,0.4,0.9,0.9,0.9c0.1,0,0.3,0,0.4-0.1c2.2-1.2,4.7-1.8,7.3-1.8c4.4,0,5.7,2.2,5.9,4.2h-4.6c-3.7,0-6.6,0.7-8.6,2.2
	c-2,1.6-3.2,4.1-3,6.7c-0.1,2.3,0.8,4.5,2.4,6.1c1.8,1.6,4.1,2.4,6.4,2.3c4.4,0,6.5-1.7,7.4-2.6v1.1c0,0.5,0.4,0.9,0.9,0.9h3.9
	c0.5,0,0.9-0.4,0.9-0.9V31.7C128.7,27.9,127.7,25,125.9,23.1z M123,34.2c0,3.5-1.7,7.5-6.3,7.5c-2.5,0-4.2-1.3-4.2-3.6
	c0-3.2,2.4-3.9,7.5-3.9L123,34.2z"/>
<path class="st1" d="M144,20.1c-2.5,0-5,0.9-6.8,2.7v-1.3c0-0.5-0.4-0.9-0.9-0.9h-3.9c-0.5,0-0.9,0.4-0.9,0.9v23.6
	c0,0.5,0.4,0.9,0.9,0.9h3.9c0.5,0,0.9-0.4,0.9-0.9V31.8c0-3.9,2-6.6,6-6.6c3.7,0,4.4,2.8,4.4,5.8v14.1c0,0.5,0.4,0.9,0.9,0.9h3.9
	c0.5,0,0.9-0.4,0.9-0.9V30.9C153.2,24.9,150.7,20.1,144,20.1z"/>
<path class="st1" d="M169.5,11.5h-3.1c-3.6,0-8.6,0.8-8.6,8.4v0.8h-2.9c-0.5,0-0.9,0.4-0.9,0.9v3c0,0.5,0.4,0.9,0.9,0.9h2.9v19.7
	c0,0.5,0.4,0.9,0.9,0.9h3.9c0.5,0,0.9-0.4,0.9-0.9c0,0,0,0,0,0V25.5h5.1c0.5,0,0.9-0.4,0.9-0.9v-3c0-0.5-0.4-0.9-0.9-0.9h-5.1v-1.1
	c0-1.6,0.4-2.2,0.6-2.4s0.9-0.6,2.3-0.6h3.1c0.5,0,0.9-0.4,0.9-0.9c0,0,0,0,0,0v-3.3C170.3,11.9,169.9,11.5,169.5,11.5z"/>
<path class="st1" d="M172.5,20.7h3.9c0.5,0,0.9,0.4,0.9,0.9v23.6c0,0.5-0.4,0.9-0.9,0.9h-3.9c-0.5,0-0.9-0.4-0.9-0.9V21.6
	C171.6,21.1,172,20.7,172.5,20.7z"/>
<path class="st1" d="M172.5,12.1h3.9c0.5,0,0.9,0.4,0.9,0.9v4c0,0.5-0.4,0.9-0.9,0.9h-3.9c-0.5,0-0.9-0.4-0.9-0.9v-4
	C171.6,12.5,172,12.1,172.5,12.1z"/>
<path class="st1" d="M192.3,20.1c-7.3,0-12.6,4.8-12.6,13.5c0,9.8,7.1,13,13.2,13c3.1,0,6.3-0.7,9.1-1.9c0.3-0.1,0.5-0.5,0.5-0.8
	v-3.6c0-0.5-0.4-0.9-0.8-0.9c-0.1,0-0.3,0-0.4,0.1c-2.5,1.3-5.3,2.1-8.2,2.1c-4.1,0-7-2-7.6-6.5h17c0.5,0,0.9-0.4,0.9-0.9v-1.9
	C203.6,25.2,199.6,20.1,192.3,20.1z M185.8,30.4c0.4-3.1,3.2-5.4,6.3-5.2c2.9-0.3,5.5,1.9,5.8,4.8c0,0.1,0,0.3,0,0.4L185.8,30.4z"/>
<path class="st1" d="M206.7,11.5h3.9c0.5,0,0.9,0.4,0.9,0.9v32.8c0,0.5-0.4,0.9-0.9,0.9h-3.9c-0.5,0-0.9-0.4-0.9-0.9V12.4
	C205.9,11.9,206.2,11.5,206.7,11.5z"/>
<path class="st1" d="M236.8,39.2V12.4c0-0.5-0.4-0.8-0.9-0.8H232c-0.5,0-0.9,0.4-0.9,0.9v10.2c-1.8-1.7-4.3-2.6-6.8-2.5
	c-4.8,0-10.6,3.5-10.6,13.3c0,6.9,3.5,13.2,10.6,13.2c4.6,0,6.8-2.3,7.5-3.3c0.9,1.5,2.2,2.7,3.8,3.5c0.4,0.2,0.9,0.1,1.2-0.3
	l2.1-3.2c0.3-0.4,0.2-1-0.2-1.2c0,0-0.1,0-0.1-0.1C237,41.2,236.8,40.7,236.8,39.2z M231.1,33.4c0,5.2-2.2,8.3-5.8,8.3
	s-5.8-3.1-5.8-8.3c0-4.8,1.9-8.3,5.8-8.3C228.9,25.1,231.1,28.1,231.1,33.4z"/>
<path class="st1" d="M243.1,14.6c0,1.3-1,2.4-2.3,2.4c-1.3,0-2.4-1-2.4-2.3c0-1.3,1-2.4,2.3-2.4c0,0,0.1,0,0.1,0
	C242,12.3,243.1,13.3,243.1,14.6C243.1,14.6,243.1,14.6,243.1,14.6z M239,14.6c0,1,0.8,1.8,1.7,1.8c0,0,0,0,0.1,0
	c1,0,1.8-0.8,1.8-1.8c0,0,0,0,0-0.1c0-1-0.8-1.8-1.8-1.8C239.8,12.9,239,13.7,239,14.6C239,14.6,239,14.6,239,14.6L239,14.6z
	 M240.4,15.8h-0.5v-2.3c0.3,0,0.6-0.1,0.9-0.1c0.3,0,0.6,0,0.8,0.2c0.2,0.1,0.2,0.3,0.2,0.5c0,0.3-0.2,0.5-0.5,0.5l0,0
	c0.2,0.1,0.3,0.3,0.4,0.6c0,0.2,0.1,0.4,0.2,0.6h-0.6c-0.1-0.2-0.1-0.4-0.2-0.6c0-0.2-0.2-0.4-0.5-0.4h-0.2V15.8z M240.4,14.5h0.3
	c0.3,0,0.5-0.1,0.5-0.3s-0.1-0.4-0.5-0.4c-0.1,0-0.2,0-0.3,0L240.4,14.5z"/>
<path class="st1" d="M29.3,26.9c2.3-0.3,4.6,0,6.7,0.9c2,0.8,2.9,3.4,4.4,3.5c5.6,0.5,10.8,0,11.2,1.9c0.2,1.1,0,2.3-0.7,3.3
	c0.1,3.8-1,6.5-3.4,7.4c-5.6,2-8.2,0.6-11.7,3c-2.9,1.9-4.2,6.7-4.4,7.7c-0.6,4.5,2,9.2,2.2,14.8c0.1,1.5-0.1,3.1-0.4,4.6h14.3
	c1,0,1.7-0.8,1.8-1.7V58c0-0.9,0.8-1.7,1.7-1.7l0,0h13.9c0.9,0,1.6-0.7,1.6-1.6l0,0V25.9c0-0.9-0.7-1.6-1.6-1.6H51
	c-0.9,0-1.7-0.8-1.7-1.7V9.1c0-1-0.8-1.7-1.8-1.7H19.1c-0.9,0-1.7,0.8-1.8,1.7v13.4c0,0.9-0.8,1.7-1.7,1.7c0,0,0,0,0,0H1.7
	C0.8,24.3,0,25,0,26v0v25.6C4.5,50,13.2,49,16.3,38.9c0.6-2.2,1.4-6.2,3-8.2s2.5-2.2,2.6-2.8c0.7-3.3,5.2-6.1,6.3-8
	C29.7,17.7,31.4,21.2,29.3,26.9z"/>
<path class="st1" d="M21.5,36.3c0-0.5,0.1-1.2,0.6-1.2c0.3,0,0.6,0.5,0.7,0.7c0.3,0.5,1,2.2,1.5,2.3c0.9-0.3,1.8-0.4,2.7-0.4
	c1.2,0.1,2.4,0.6,3.3,1.4c0.4,0.3,0.8,0.4,1.2,0.4c0.4,0.1,1.1,0.1,1.4,0.4c0.7,1.1,0.8,2.5,0.4,3.7c-0.5,1.3-1.3,1.6-2.6,2.2
	c-1.1,0.5-1.6,1.1-2,2.7c-0.6,2.3,0.3,5.1,0.5,7.6c0.4,5.5,0.1,11.4-2.9,16.2c-0.2,0.3-0.8,1.1-1.2,1.6h-6.1c-1,0-1.8-0.8-1.7-1.8
	V58.3c0.1-1-0.6-1.9-1.6-2c-0.1,0-0.1,0-0.2,0H1.5c-0.5,0-0.9-0.3-1.1-0.7c0.9-1.1,2.1-2,3.5-2.6c2-0.8,4.2-1.3,6.4-1.5
	c2-0.2,4.4,0.1,6.1-1.1c1.6-1.3,2.5-3.2,2.4-5.3c0-0.7,0-0.9,0-1.2c0-0.5,0.3-0.7,0.2-1.2c-0.1-1.8-0.2-3.7-0.1-5.5
	c0-0.7,0.2-1.4,0.5-2c0.3-0.2,0.6-0.2,0.8,0C20.6,35.6,21.1,35.9,21.5,36.3z"/>
<path class="st2" d="M464.6,29h-0.9v-0.5h2.4V29h-0.9v3.2h-0.6V29z M466.7,28.5h1l0.9,2.7l0.9-2.7h1v3.7h-0.6v-3.1l-1,3.1h-0.5
	l-1-3.1v3.1h-0.6L466.7,28.5z"/>
</svg>
